<svg xmlns="http://www.w3.org/2000/svg" viewBox="0 0 64 64"><defs><style>.cls-1{fill:#0a3d52;}.cls-2{fill:#76bc1d;}.cls-3{fill:#093e52;}</style></defs><title>Element 7</title><g id="Ebene_2" data-name="Ebene 2"><g id="Layer_1" data-name="Layer 1"><rect class="cls-1" x="47" y="58" width="16" height="2"/><path class="cls-1" d="M59,64a1,1,0,0,1-.71-.29,1,1,0,0,1,0-1.42L61.59,59l-3.3-3.29a1,1,0,0,1,1.42-1.42l4,4a1,1,0,0,1,0,1.42l-4,4A1,1,0,0,1,59,64Z"/><path class="cls-1" d="M36,10a1,1,0,0,1-.71-.29l-4-4a1,1,0,0,1,0-1.42l4-4a1,1,0,1,1,1.42,1.42L33.41,5l3.3,3.29a1,1,0,0,1,0,1.42A1,1,0,0,1,36,10Z"/><path class="cls-1" d="M32,60H0V58H32A26,26,0,0,0,32,6V4a28,28,0,0,1,0,56Z"/><path class="cls-1" d="M17.48,56A28,28,0,0,1,26.89,4.46l.37,2a26,26,0,0,0-8.74,47.81Z"/><path class="cls-1" d="M21.36,41.71a.66.66,0,0,1-.33-.09l-7.71-4.2A.71.71,0,0,1,13,36.8V28.39a.68.68,0,0,1,.37-.61L21,23.57a.72.72,0,0,1,.67,0l7.71,4.21a.69.69,0,0,1,.36.61V36.8a.72.72,0,0,1-.36.62l-7.71,4.2A.69.69,0,0,1,21.36,41.71Zm-7-5.33,7,3.83,7-3.83V28.81l-7-3.83-7,3.83Z"/><path class="cls-1" d="M21.36,33.3a.66.66,0,0,1-.33-.09L13.32,29,14,27.78l7.37,4,7.38-4L29.41,29l-7.71,4.2A.69.69,0,0,1,21.36,33.3Z"/><rect class="cls-1" x="20.66" y="32.6" width="1.4" height="8.41"/><polygon class="cls-2" points="40.63 32.08 37.2 36.55 39.83 36.55 43.26 32.08 39.85 27.63 37.21 27.63 40.63 32.08"/><polygon class="cls-3" points="44.1 27.62 42.41 29.86 43.73 31.58 46.74 27.63 44.1 27.62"/><polygon class="cls-3" points="42.41 34.31 44.1 36.55 46.74 36.55 43.73 32.6 42.41 34.31"/><polygon class="cls-1" points="50.34 40.47 33.59 40.47 33.59 27.06 35.26 27.06 35.26 38.79 48.67 38.79 48.67 25.38 36.94 25.38 36.94 23.71 50.34 23.71 50.34 40.47"/><rect class="cls-1" x="33.59" y="23.71" width="1.68" height="1.68"/></g></g></svg>